<?xml version="1.0" standalone="no"?>
<!DOCTYPE svg PUBLIC "-//W3C//DTD SVG 20010904//EN"
 "http://www.w3.org/TR/2001/REC-SVG-20010904/DTD/svg10.dtd">
<svg version="1.0" xmlns="http://www.w3.org/2000/svg"
 width="365.000000pt" height="365.000000pt" viewBox="0 0 365.000000 365.000000"
 preserveAspectRatio="xMidYMid meet">
<metadata>
Created by potrace 1.14, written by Peter Selinger 2001-2017
</metadata>
<g transform="translate(0.000000,365.000000) scale(0.100000,-0.100000)"
fill="#000000" stroke="none">
<path d="M1108 3275 c-2 -2 -28 -6 -58 -10 -114 -14 -280 -120 -335 -215 -17
-29 -69 -132 -71 -140 -13 -62 -49 -122 -101 -171 -30 -27 -135 -82 -159 -82
-8 0 -14 -3 -14 -6 0 -3 -29 -5 -64 -4 -72 3 -96 -13 -101 -67 -2 -24 6 -39
35 -70 21 -21 40 -36 44 -33 3 4 6 1 6 -5 0 -7 8 -12 18 -12 10 0 22 -4 28 -8
18 -17 124 -54 161 -57 21 -2 38 -4 38 -5 0 -1 15 -2 33 -3 17 -1 32 1 32 5 0
5 5 7 12 5 19 -4 48 -30 48 -44 0 -7 7 -13 15 -13 8 0 15 -4 15 -8 0 -5 21
-23 46 -42 47 -33 75 -80 68 -112 -2 -10 -6 -28 -9 -40 -7 -31 -41 -77 -121
-162 -38 -40 -82 -90 -99 -111 -16 -21 -36 -44 -42 -51 -7 -7 -13 -15 -13 -19
0 -4 -13 -26 -30 -50 -16 -24 -30 -48 -30 -54 0 -6 -5 -11 -12 -11 -6 0 -9 -3
-5 -6 3 -3 -2 -20 -12 -37 -23 -42 -57 -141 -67 -197 -9 -53 -9 -79 1 -140 4
-25 8 -55 9 -67 0 -13 4 -23 9 -23 4 0 6 -3 5 -8 -4 -16 34 -112 67 -167 19
-32 35 -59 35 -61 0 -19 218 -233 238 -234 4 -1 17 -10 30 -21 13 -11 27 -17
31 -15 4 3 17 -2 27 -10 10 -9 13 -13 7 -9 -9 4 -11 1 -7 -10 6 -14 8 -14 20
2 13 17 13 17 14 1 0 -10 5 -18 11 -18 5 0 7 5 4 10 -3 6 -1 10 4 10 6 0 11
-4 11 -8 0 -4 8 -8 18 -9 9 -1 33 -5 52 -8 19 -4 46 -7 59 -7 19 0 21 -2 10
-10 -10 -7 -6 -8 14 -5 24 4 27 2 21 -15 -6 -19 -5 -19 16 2 16 16 25 19 34
11 7 -6 17 -7 21 -3 5 4 5 2 1 -5 -3 -6 -2 -14 3 -17 5 -3 12 1 15 10 5 12 10
14 20 5 7 -6 17 -7 21 -3 5 4 5 1 1 -6 -6 -10 -11 -10 -22 -1 -10 8 -14 8 -14
0 0 -6 6 -12 13 -12 14 -1 30 -5 37 -8 17 -8 39 -8 34 0 -3 5 1 9 10 9 8 0 23
3 33 6 15 5 15 4 3 -5 -13 -9 -12 -13 4 -28 12 -11 15 -12 8 -3 -9 13 -7 18
10 29 11 7 17 8 14 2 -4 -6 5 -9 24 -6 16 2 30 -1 30 -6 0 -6 -7 -9 -16 -7
-10 2 -19 -4 -21 -12 -3 -9 -1 -11 4 -5 12 15 42 12 53 -5 9 -13 10 -13 10 0
1 12 3 12 14 -3 12 -16 14 -16 20 -2 3 9 11 13 17 9 7 -4 9 -3 6 3 -4 6 -20 9
-37 8 -18 -2 -27 1 -23 8 4 6 1 7 -8 2 -12 -7 -12 -5 -1 6 9 10 15 11 20 3 4
-6 15 -10 24 -9 9 2 27 -6 39 -16 13 -11 28 -18 35 -15 7 3 15 0 17 -7 3 -7 5
-3 4 9 -1 13 -8 21 -21 22 -17 1 -18 -1 -6 -9 12 -8 12 -10 1 -7 -8 2 -15 12
-17 21 -2 13 2 15 16 7 9 -5 20 -7 23 -4 3 3 10 -3 16 -14 8 -15 19 -19 51
-16 29 2 39 0 33 -9 -5 -9 -3 -9 8 -1 8 6 22 10 31 9 10 -2 16 2 15 8 -1 6 13
11 31 12 27 1 31 -2 26 -19 -5 -16 -4 -17 9 -5 8 8 13 16 12 19 -6 10 114 5
122 -5 4 -4 3 -5 -4 -1 -6 3 -14 2 -17 -3 -8 -13 19 -8 37 7 12 11 19 8 36
-15 18 -23 20 -24 11 -5 -7 13 -9 26 -6 30 3 3 6 0 6 -7 0 -7 4 -9 10 -6 18
11 51 14 45 4 -7 -10 -4 -11 35 -13 14 0 28 -5 32 -11 5 -6 8 -6 8 2 0 6 11
10 25 8 20 -2 23 1 15 11 -9 10 -7 11 9 7 12 -3 18 -9 15 -14 -3 -5 0 -9 5 -9
15 0 14 27 -1 33 -7 3 -3 4 8 4 15 -1 20 -6 16 -17 -4 -13 -2 -12 13 2 13 12
24 14 41 8 15 -6 26 -5 30 2 5 8 10 7 18 -3 22 -27 43 -19 37 14 -1 4 7 4 16
-1 10 -4 36 -10 58 -11 22 -2 46 -8 54 -14 10 -8 13 -8 8 -1 -3 6 5 16 19 23
15 6 23 7 19 1 -9 -14 8 -12 24 3 11 10 13 9 8 -5 -3 -10 -2 -20 3 -23 11 -7
53 19 45 27 -3 2 2 5 10 5 20 0 19 -14 -2 -26 -10 -6 -13 -10 -8 -10 12 0 47
25 46 33 -1 3 2 6 7 6 4 0 7 -4 7 -9 0 -5 4 -13 8 -18 5 -4 7 -2 5 6 -1 7 3
16 11 19 9 3 11 0 6 -9 -5 -8 2 -5 15 6 13 11 20 15 17 9 -4 -7 0 -15 9 -18 8
-3 12 -2 9 4 -7 11 -5 11 35 14 14 0 30 5 37 9 7 4 18 -1 26 -14 l15 -21 7 21
c3 12 14 22 23 22 18 1 34 4 42 8 17 8 39 8 34 0 -3 -5 -11 -6 -17 -2 -7 4 -5
-2 3 -13 22 -29 24 -30 17 -11 -4 11 -1 17 9 17 9 0 12 -5 8 -12 -4 -7 -4 -10
1 -6 4 4 14 3 20 -2 9 -8 12 -4 10 12 -4 33 -4 34 -14 19 -7 -11 -11 -9 -21 9
-10 18 -10 21 2 14 19 -12 48 -15 48 -5 0 5 -8 12 -17 14 -17 4 -17 5 0 6 10
0 20 -6 23 -14 4 -8 13 -15 21 -15 9 0 22 -8 29 -17 13 -17 14 -17 8 2 -6 16
-4 18 6 8 9 -8 19 -9 32 -2 12 7 25 6 39 -1 17 -10 21 -8 26 9 3 12 10 21 15
21 6 0 7 -8 4 -17 -4 -12 0 -10 12 5 17 22 20 23 35 7 9 -9 17 -12 17 -6 0 6
-9 15 -21 21 -11 7 -18 14 -15 17 3 3 17 -2 32 -12 15 -9 24 -12 20 -7 -4 6 2
10 14 9 11 -1 20 -6 20 -12 0 -5 4 -3 9 5 6 8 7 18 5 22 -7 11 4 10 27 -2 15
-8 23 -7 34 3 8 8 11 17 8 21 -6 6 11 10 32 7 6 0 16 13 24 30 10 22 18 28 30
23 27 -11 61 -13 61 -2 0 5 -10 6 -22 3 -19 -6 -21 -5 -10 6 6 7 12 20 11 28
0 10 -4 7 -9 -6 -5 -13 -14 -23 -19 -23 -5 0 -3 14 6 31 15 29 16 30 35 13 17
-17 58 -31 43 -16 -4 4 -10 7 -14 7 -4 0 -15 8 -25 18 -11 11 -13 17 -5 17 7
0 9 3 6 6 -4 4 -13 1 -21 -5 -11 -10 -17 -7 -30 11 -9 12 -16 18 -17 13 -1 -6
-5 1 -9 15 -7 23 -8 23 -9 4 -1 -13 10 -29 25 -39 14 -9 23 -19 20 -22 -3 -3
-11 -1 -19 5 -8 7 -18 7 -27 2 -23 -15 -36 -12 -16 3 17 12 17 14 -1 33 -10
11 -15 15 -10 10 17 -22 5 -29 -13 -7 -11 12 -18 27 -15 31 3 5 0 12 -6 16 -8
4 -9 3 -5 -4 4 -7 -6 -18 -25 -27 -30 -16 -31 -16 -24 6 5 15 4 19 -5 14 -7
-4 -9 -18 -5 -34 5 -21 0 -17 -22 16 -15 24 -32 43 -37 43 -5 0 -1 -9 9 -20
16 -18 16 -20 2 -20 -10 0 -17 5 -17 11 0 6 -6 9 -12 7 -7 -3 -13 -10 -13 -16
0 -5 -4 -14 -9 -19 -5 -5 -6 -2 -1 6 5 9 4 12 -3 7 -11 -6 -6 -36 6 -36 3 0
14 7 24 17 10 9 21 14 24 11 3 -4 -17 -21 -45 -39 -28 -18 -48 -35 -46 -38 3
-2 13 3 22 11 30 25 47 33 39 17 -4 -8 -1 -6 7 4 10 12 17 14 22 8 3 -6 1 -11
-5 -11 -6 0 -1 -10 12 -22 13 -13 17 -17 8 -11 -21 16 -30 16 -30 1 0 -6 3 -8
7 -5 7 8 43 -21 43 -36 0 -5 -8 -1 -17 10 -10 10 -15 14 -10 9 4 -6 7 -15 7
-20 0 -6 -5 -4 -10 4 -9 13 -10 13 -10 0 0 -13 -1 -13 -10 0 -9 13 -10 13 -10
0 0 -12 -2 -12 -9 -1 -5 7 -11 9 -14 5 -3 -5 7 -18 22 -29 16 -12 22 -14 16
-4 -5 8 -3 7 6 -3 9 -9 20 -14 24 -10 5 4 5 1 1 -5 -5 -9 -2 -11 8 -7 9 3 16
1 16 -6 0 -6 -4 -9 -9 -5 -5 3 -12 1 -16 -5 -4 -6 -11 -8 -16 -5 -5 4 -9 0 -9
-7 0 -8 -3 -9 -8 -3 -7 10 -17 14 -62 21 -17 3 -21 2 -12 -4 11 -8 11 -10 -1
-15 -8 -3 -19 -1 -25 5 -6 6 -12 6 -16 -1 -4 -6 0 -11 8 -11 20 0 25 -11 17
-34 -6 -16 -9 -16 -22 -5 -8 8 -23 15 -34 17 -16 2 -17 1 -5 -7 12 -8 11 -10
-7 -8 -17 1 -19 4 -11 14 7 9 7 13 0 13 -6 0 -16 -8 -21 -18 -6 -9 -11 -12
-11 -5 0 6 5 15 10 18 6 3 10 10 10 16 0 5 -9 4 -19 -3 -11 -7 -17 -17 -14
-23 3 -5 -2 -2 -13 7 -15 14 -16 20 -5 30 10 11 11 10 5 -5 -5 -13 -2 -16 10
-11 8 3 15 9 14 12 0 4 0 14 1 22 1 12 4 12 12 -3 8 -13 15 -15 28 -7 10 5 21
6 25 3 3 -3 6 -1 6 5 0 6 -10 16 -22 23 -18 10 -20 9 -15 -5 4 -9 2 -16 -3
-16 -18 0 -10 24 16 51 17 17 32 25 43 21 14 -5 14 -4 1 13 -8 10 -10 16 -4
12 14 -8 38 18 30 31 -3 6 1 15 9 22 8 7 15 16 15 21 0 5 12 23 27 39 14 17
28 42 29 56 2 14 16 58 33 97 16 40 32 90 35 112 4 23 9 52 11 65 6 31 7 188
1 215 -2 11 -7 49 -11 85 -4 35 -11 74 -16 87 -5 13 -5 23 -2 23 4 0 2 5 -5
12 -7 7 -12 19 -12 28 0 8 -12 32 -26 53 -25 37 -27 38 -45 21 -10 -9 -19 -23
-19 -31 0 -19 -51 -93 -64 -93 -55 1 -99 152 -111 380 -3 52 -7 113 -10 135
-3 22 -8 65 -10 95 -12 176 -70 297 -151 321 -33 10 -64 -15 -149 -118 -5 -7
-16 -19 -22 -27 -7 -8 -13 -18 -13 -22 0 -15 -240 -243 -296 -281 -81 -55
-254 -142 -254 -128 0 2 -15 -2 -33 -10 -33 -13 -108 -13 -152 2 -11 4 -27 7
-35 9 -8 1 -31 5 -50 8 -19 4 -49 8 -67 10 -17 3 -41 9 -52 16 -12 6 -21 8
-21 5 0 -4 -13 3 -29 14 -16 12 -34 21 -40 21 -6 0 -10 3 -10 8 1 4 0 9 -1 12
-1 3 -4 24 -6 48 -4 34 0 53 20 86 14 23 32 48 40 55 9 7 13 17 10 22 -3 5 -1
9 5 9 11 0 68 115 75 151 3 13 5 24 6 24 1 0 3 8 5 18 2 11 6 21 9 24 3 3 1
14 -5 24 -6 12 -6 19 0 19 9 0 7 131 -2 175 -3 11 -8 39 -12 62 -4 24 -11 45
-15 48 -5 3 -7 12 -3 20 3 8 0 15 -6 15 -6 0 -11 7 -11 15 0 15 -29 70 -63
120 -39 57 -140 145 -201 174 -73 35 -172 65 -191 58 -7 -3 -16 -3 -20 1 -6 6
-121 13 -127 7z m2112 -2319 c0 -3 -4 -8 -10 -11 -5 -3 -10 -1 -10 4 0 6 5 11
10 11 6 0 10 -2 10 -4z m4 -55 c3 -5 -2 -15 -12 -22 -15 -12 -16 -12 -5 2 7 9
10 19 6 22 -3 4 -4 7 0 7 3 0 8 -4 11 -9z m50 -33 c-3 -4 0 -8 6 -8 7 0 10 -7
6 -17 -5 -15 -4 -15 9 1 8 11 15 23 15 26 0 4 12 12 28 19 15 7 24 9 20 5 -5
-4 1 -14 12 -21 11 -8 19 -22 18 -31 -2 -11 4 -17 20 -18 12 -1 22 4 22 10 0
5 8 3 17 -6 15 -16 14 -19 -20 -51 -20 -19 -33 -38 -29 -42 4 -5 1 -5 -7 0
-10 6 -21 0 -35 -18 l-21 -26 -45 30 c-54 36 -53 36 -35 36 8 0 15 -4 15 -9 0
-4 4 -8 9 -8 15 0 6 58 -13 79 -11 12 -15 21 -11 21 5 0 4 5 -2 11 -9 9 -9 16
0 30 8 13 14 15 18 7 4 -7 5 -16 3 -20z m-88 -180 c-2 -14 -8 -18 -28 -18 -6
0 -3 7 8 15 23 18 23 18 20 3z m98 4 c3 -5 -1 -9 -9 -9 -8 0 -12 4 -9 9 3 4 7
8 9 8 2 0 6 -4 9 -8z m-2059 -81 c3 -5 1 -12 -5 -16 -5 -3 -10 1 -10 9 0 18 6
21 15 7z m338 -31 c-3 -12 -8 -19 -11 -16 -5 6 5 36 12 36 2 0 2 -9 -1 -20z
m867 10 c0 -5 -2 -10 -4 -10 -3 0 -8 5 -11 10 -3 6 -1 10 4 10 6 0 11 -4 11
-10z m105 -9 c-3 -6 -11 -11 -17 -11 -6 0 -6 6 2 15 14 17 26 13 15 -4z m-886
-5 c11 -14 6 -15 -27 -7 -4 1 8 21 12 21 2 0 9 -6 15 -14z m441 -5 c0 -4 -6
-8 -13 -8 -8 0 -14 6 -14 13 0 7 6 10 14 7 7 -3 13 -8 13 -12z m-500 5 c0 -3
-4 -8 -10 -11 -5 -3 -10 -1 -10 4 0 6 5 11 10 11 6 0 10 -2 10 -4z m460 -7 c0
-4 -9 -7 -19 -6 -11 0 -18 4 -16 7 6 9 35 8 35 -1z"/>
<path d="M3255 871 c-3 -5 -1 -12 5 -16 6 -4 8 -10 5 -14 -2 -5 4 -16 14 -25
13 -12 18 -28 16 -52 -4 -58 32 -67 74 -19 18 21 32 30 35 22 3 -9 5 -9 5 1 1
6 1 15 2 20 0 4 10 12 22 19 l22 12 -22 -2 c-13 -1 -23 -5 -23 -11 0 -5 -9 -1
-20 9 -10 9 -19 20 -18 24 2 18 -3 29 -16 34 -10 4 -13 1 -9 -9 3 -7 10 -14
16 -14 6 0 7 -3 4 -7 -4 -3 -15 1 -26 11 -17 16 -19 15 -35 -9 -9 -14 -21 -23
-27 -20 -5 4 -7 10 -4 15 3 5 1 11 -5 15 -6 4 -8 11 -5 16 4 5 4 9 1 9 -3 0
-7 -4 -11 -9z m151 -82 c3 -5 1 -8 -4 -7 -5 2 -21 -11 -36 -29 -35 -41 -61
-38 -61 8 0 19 -3 39 -8 46 -4 7 1 17 13 26 11 7 17 18 12 22 -4 5 12 -6 35
-24 24 -18 45 -37 49 -42z"/>
<path d="M3315 826 c-13 -9 -15 -15 -6 -20 6 -4 9 -12 6 -17 -4 -5 -1 -9 5 -9
6 0 8 -5 3 -12 -27 -45 10 -45 44 -1 l24 31 -29 21 c-25 17 -32 18 -47 7z m49
-43 c-10 -7 -14 -13 -10 -13 5 0 3 -7 -4 -15 -7 -8 -16 -12 -22 -9 -5 4 -5 11
1 18 7 9 6 19 -4 33 -20 28 0 36 34 15 22 -15 22 -16 5 -29z"/>
<path d="M3330 811 c0 -6 5 -11 11 -11 5 0 7 -4 4 -10 -3 -6 1 -7 10 -4 9 4
15 7 13 8 -2 1 -11 8 -20 15 -12 9 -18 10 -18 2z"/>
<path d="M3265 950 c-3 -6 1 -7 9 -4 18 7 21 14 7 14 -6 0 -13 -4 -16 -10z"/>
<path d="M3332 955 c4 -4 3 -14 -4 -22 -6 -7 -9 -15 -7 -18 3 -2 10 4 17 15 9
15 9 21 -1 26 -6 4 -9 4 -5 -1z"/>
<path d="M3280 930 c-8 -5 -10 -10 -5 -10 6 0 17 5 25 10 8 5 11 10 5 10 -5 0
-17 -5 -25 -10z"/>
<path d="M3395 921 c-3 -5 -2 -12 3 -15 5 -3 9 1 9 9 0 17 -3 19 -12 6z"/>
<path d="M3456 897 c3 -9 10 -17 16 -17 5 0 6 -4 3 -10 -3 -6 1 -7 10 -4 9 4
15 7 13 8 -2 1 -13 10 -26 21 -20 16 -22 16 -16 2z"/>
<path d="M3161 856 c-7 -8 -8 -17 -3 -20 6 -3 15 1 21 8 7 8 8 17 3 20 -6 3
-15 -1 -21 -8z"/>
<path d="M3530 855 c-7 -9 -10 -18 -6 -22 3 -3 6 -1 6 6 0 7 4 10 8 7 5 -3 9
1 9 9 0 19 -2 19 -17 0z"/>
<path d="M3179 814 c-6 -8 -18 -13 -27 -12 -8 2 -16 -5 -18 -16 -1 -10 -8 -24
-14 -30 -6 -6 -11 -7 -10 -1 5 24 -1 27 -20 10 -20 -18 -20 -18 1 -33 12 -8
18 -20 14 -29 -4 -12 -2 -13 8 -5 10 9 17 8 26 -1 10 -9 12 -9 9 3 -2 10 6 15
30 15 17 1 32 -1 32 -5 0 -3 11 -6 25 -6 l25 0 -27 22 c-16 12 -31 20 -34 18
-4 -2 -9 3 -12 10 -7 18 12 34 36 31 14 -3 16 -1 7 10 -7 8 -9 18 -7 22 10 15
-31 12 -44 -3z m21 -4 c-8 -5 -11 -10 -6 -10 5 0 1 -9 -9 -20 -10 -11 -14 -20
-10 -20 5 0 -1 -9 -12 -19 -22 -21 -46 -22 -65 -3 -9 9 -9 15 1 25 10 10 11 9
6 -4 -4 -10 -2 -20 4 -23 12 -8 44 48 33 58 -3 4 1 4 9 1 9 -3 22 1 29 10 7 8
18 15 24 15 6 0 4 -5 -4 -10z m14 -81 c3 -3 -5 -5 -19 -5 -13 0 -22 3 -19 7 4
8 30 6 38 -2z"/>
<path d="M3169 787 c-9 -7 -21 -23 -28 -37 -11 -22 -10 -23 2 -8 8 10 16 17
18 15 2 -1 3 0 1 2 -1 2 5 13 15 23 18 21 15 23 -8 5z"/>
<path d="M3429 743 c-11 -15 -11 -16 1 -5 18 15 34 16 24 0 -4 -7 -3 -8 5 -4
12 8 6 26 -8 26 -5 0 -15 -8 -22 -17z"/>
<path d="M3485 730 c-3 -6 1 -7 9 -4 18 7 21 14 7 14 -6 0 -13 -4 -16 -10z"/>
<path d="M3380 701 c0 -6 4 -13 10 -16 6 -3 7 1 4 9 -7 18 -14 21 -14 7z"/>
<path d="M3080 690 c0 -6 -6 -8 -12 -4 -10 5 -10 4 -2 -5 6 -7 18 -13 25 -14
8 -2 20 -6 27 -10 7 -5 12 -4 12 2 0 6 -4 11 -9 11 -5 0 -17 7 -25 16 -9 9
-16 11 -16 4z"/>
<path d="M3306 672 c-3 -5 1 -9 9 -9 8 0 12 4 9 9 -3 4 -7 8 -9 8 -2 0 -6 -4
-9 -8z"/>
<path d="M910 646 c0 -3 9 -10 20 -16 11 -6 20 -8 20 -6 0 3 -9 10 -20 16 -11
6 -20 8 -20 6z"/>
<path d="M958 638 c14 -14 44 -20 36 -7 -3 5 -10 7 -15 4 -5 -4 -9 -1 -9 4 0
6 -5 11 -12 11 -9 0 -9 -3 0 -12z"/>
<path d="M2983 617 c0 -12 1 -16 4 -9 3 6 9 12 14 12 6 0 8 -4 5 -8 -3 -5 1
-9 9 -9 17 0 10 13 -13 26 -14 8 -18 5 -19 -12z"/>
<path d="M1085 622 c-5 -4 -11 -14 -13 -22 -2 -12 0 -12 11 2 12 15 14 15 25
0 10 -14 11 -13 2 6 -12 25 -11 24 -25 14z"/>
<path d="M1010 616 c0 -2 7 -7 16 -10 8 -3 12 -2 9 4 -6 10 -25 14 -25 6z"/>
<path d="M2835 600 c-16 -17 -16 -20 -3 -15 9 4 19 13 22 21 7 19 2 18 -19 -6z"/>
<path d="M2870 600 c-6 -11 -8 -20 -6 -20 3 0 10 9 16 20 6 11 8 20 6 20 -3 0
-10 -9 -16 -20z"/>
<path d="M2766 601 c-4 -5 -17 -8 -29 -7 -14 2 -24 -2 -24 -10 0 -9 6 -10 16
-5 9 5 27 7 41 5 14 -1 19 0 12 2 -6 3 -10 10 -6 15 3 5 3 9 0 9 -3 0 -7 -4
-10 -9z"/>
<path d="M2185 570 c-3 -5 -1 -10 4 -10 6 0 11 5 11 10 0 6 -2 10 -4 10 -3 0
-8 -4 -11 -10z"/>
<path d="M2245 570 c-3 -5 -13 -6 -23 -3 -9 3 -14 3 -10 -1 3 -4 12 -8 20 -10
7 -1 20 -6 28 -11 12 -7 13 -6 3 7 -7 8 -10 18 -6 21 3 4 4 7 0 7 -3 0 -8 -4
-12 -10z"/>
<path d="M2310 573 c0 -5 5 -15 10 -23 7 -12 9 -10 7 8 -1 19 -17 33 -17 15z"/>
<path d="M2340 570 c0 -5 5 -10 11 -10 5 0 7 5 4 10 -3 6 -8 10 -11 10 -2 0
-4 -4 -4 -10z"/>
<path d="M1690 550 c6 -11 16 -22 23 -26 9 -5 9 -4 0 7 -7 7 -13 17 -13 22 0
4 6 5 13 1 6 -4 8 -3 4 1 -4 5 -14 10 -22 11 -11 2 -12 -2 -5 -16z"/>
<path d="M1757 550 c-6 -8 -7 -12 -3 -8 5 4 15 3 23 -4 11 -9 13 -8 11 2 -3
16 21 20 39 7 7 -5 10 -14 6 -20 -3 -6 -1 -7 6 -3 8 6 9 12 2 20 -6 7 -9 15
-6 17 2 3 -12 5 -31 5 -20 0 -40 -7 -47 -16z"/>
<path d="M1895 560 c-3 -5 -1 -10 4 -10 6 0 11 5 11 10 0 6 -2 10 -4 10 -3 0
-8 -4 -11 -10z"/>
<path d="M1962 561 c-11 -7 -11 -9 0 -14 9 -3 15 1 15 9 0 8 -1 14 -1 14 -1 0
-7 -4 -14 -9z"/>
</g>
</svg>
